#!OML:ASF H:\ManfredETheater\Project 1\Capture day 1\Session 1\subject.ASF
:FULLY-SPECIFIED
:DEGREES
380
root 1.00946 16.6094 -32.7859 -161.2 -0.666624 -184.591
lowerback 14.7276 -1.492 -2.89717
upperback -1.15223 -2.47549 0.722938
thorax -9.37836 -1.03552 2.97877
lowerneck -21.1184 -1.43653 -1.84134
upperneck 10.8901 -1.5892 1.3129
head 6.77009 -0.711005 0.540136
rclavicle 4.57205e-014 -1.98785e-015
rhumerus -44.2977 -2.4188 -87.3889
rradius 59.5124
rwrist -9.21446
rhand -28.2692 -0.983158
rfingers 7.12502
rthumb -1.64593 -30.9566
lclavicle 4.57205e-014 -1.98785e-015
lhumerus -37.7378 -6.25847 90.4615
lradius 60.5453
lwrist 3.6001
lhand -17.1268 2.27653
lfingers 7.12502
lthumb 9.11299 32.0596
rfemur -44.8029 -10.0571 15.9426
rtibia 84.5317
rfoot -17.5714 -11.4724
rtoes -37.7745
lfemur -17.8546 -3.00014 -26.9645
ltibia 46.9817
lfoot -35.1208 -2.14777
ltoes -6.10325
381
root 1.01715 16.5639 -32.907 -161.073 -0.796654 -184.676
lowerback 15.2172 -1.65159 -3.0843
upperback -0.902569 -2.74724 0.726644
thorax -9.35727 -1.16551 3.16438
lowerneck -21.2147 -1.29914 -1.67673
upperneck 10.3669 -1.43583 1.34378
head 6.6111 -0.62133 0.542687
rclavicle 1.66979e-014 -7.95139e-016
rhumerus -44.653 -2.999 -87.0531
rradius 59.0993
rwrist -9.75858
rhand -28.4383 -1.05762
rfingers 7.12502
rthumb -1.80925 -31.0297
lclavicle 1.66979e-014 -7.95139e-016
lhumerus -37.1431 -6.33571 90.4138
lradius 62.6751
lwrist 4.55487
lhand -17.8619 2.25047
lfingers 7.12502
lthumb 8.40361 32.0633
rfemur -47.2027 -10.5577 16.4125
rtibia 86.4599
rfoot -17.6172 -11.0419
rtoes -37.8969
lfemur -18.0169 -2.82052 -26.8699
ltibia 47.8752
lfoot -34.9438 -3.06704
ltoes -6.86216
382
root 1.02692 16.5196 -33.0358 -160.965 -0.942619 -184.747
lowerback 15.6968 -1.80324 -3.26786
upperback -0.653407 -3.01025 0.738208
thorax -9.32833 -1.29271 3.35645
lowerneck -21.2818 -1.17596 -1.52721
upperneck 9.83458 -1.29753 1.39055
head 6.44551 -0.537677 0.550944
rclavicle -2.37548e-014 2.78299e-015
rhumerus -45.0838 -3.64067 -86.6294
rradius 58.5701
rwrist -10.3839
rhand -28.4541 -1.31915
rfingers 7.12502
rthumb -1.82449 -31.2911
lclavicle -2.37548e-014 2.78299e-015
lhumerus -36.4896 -6.36309 90.3452
lradius 64.9443
lwrist 5.53427
lhand -18.6249 2.30984
lfingers 7.12502
lthumb 7.66719 32.1508
rfemur -49.5919 -11.0212 16.9418
rtibia 88.12
rfoot -17.6649 -10.6167
rtoes -38.0709
lfemur -18.0733 -2.67416 -26.7355
ltibia 48.6483
lfoot -34.7339 -4.0626
ltoes -7.3861
383
root 1.03803 16.4761 -33.1728 -160.888 -1.11232 -184.808
lowerback 16.1735 -1.94642 -3.43318
upperback -0.401659 -3.26147 0.755569
thorax -9.29345 -1.41654 3.54383
lowerneck -21.3256 -1.0742 -1.40443
upperneck 9.30427 -1.18035 1.45089
head 6.27805 -0.46379 0.565238
rclavicle 1.66979e-014 -3.77691e-015
rhumerus -45.6048 -4.31603 -86.1188
rradius 57.947
rwrist -11.1089
rhand -28.3733 -1.7216
rfingers 7.12502
rthumb -1.74649 -31.6942
lclavicle 1.66979e-014 -3.77691e-015
lhumerus -35.7774 -6.35257 90.2683
lradius 67.3731
lwrist 6.56323
lhand -19.3598 2.47147
lfingers 7.12502
lthumb 6.95785 32.3371
rfemur -51.9446 -11.4558 17.5136
rtibia 89.5143
rfoot -17.7181 -10.1917
rtoes -38.259
lfemur -17.9841 -2.58054 -26.5681
ltibia 49.2597
lfoot -34.503 -5.11458
ltoes -7.63024
384
root 1.05029 16.433 -33.318 -160.844 -1.29436 -184.89
lowerback 16.6564 -2.07814 -3.61024
upperback -0.153731 -3.50391 0.767692
thorax -9.2638 -1.53674 3.73282
lowerneck -21.3445 -0.993357 -1.30223
upperneck 8.78696 -1.08502 1.51856
head 6.11191 -0.400592 0.582462
rclavicle 1.08338e-014 -1.98785e-014
rhumerus -46.2422 -4.98648 -85.5355
rradius 57.2604
rwrist -11.9496
rhand -28.2525 -2.17985
rfingers 7.12502
rthumb -1.62982 -32.1534
lclavicle 1.08338e-014 -1.98785e-014
lhumerus -35.0186 -6.30554 90.1868
lradius 69.9782
lwrist 7.66254
lhand -20.0614 2.66261
lfingers 7.12502
lthumb 6.28051 32.5495
rfemur -54.2539 -11.8648 18.0788
rtibia 90.6566
rfoot -17.7747 -9.76237
rtoes -38.4582
lfemur -17.7237 -2.54425 -26.4108
ltibia 49.6748
lfoot -34.2686 -6.19573
ltoes -7.5854
385
root 1.06351 16.3899 -33.4716 -160.823 -1.48742 -185.001
lowerback 17.1338 -2.19865 -3.8004
upperback 0.0844742 -3.73762 0.772422
thorax -9.23928 -1.653 3.92127
lowerneck -21.3453 -0.938241 -1.23783
upperneck 8.295 -1.01674 1.61511
head 5.9524 -0.349533 0.611753
rclavicle 1.2424e-014 -4.17448e-015
rhumerus -47.0246 -5.62391 -84.8915
rradius 56.5632
rwrist -12.902
rhand -28.1524 -2.59151
rfingers 7.12502
rthumb -1.5331 -32.5657
lclavicle 1.2424e-014 -4.17448e-015
lhumerus -34.2131 -6.2245 90.1072
lradius 72.7733
lwrist 8.84385
lhand -20.6927 2.8583
lfingers 7.12502
lthumb 5.67101 32.7624
rfemur -56.5263 -12.2475 18.6228
rtibia 91.5578
rfoot -17.8321 -9.33064
rtoes -38.6631
lfemur -17.2904 -2.56555 -26.2778
ltibia 49.8717
lfoot -34.0424 -7.24713
ltoes -7.3821
386
root 1.07688 16.3465 -33.6344 -160.794 -1.68536 -185.151
lowerback 17.5702 -2.30777 -3.99956
upperback 0.300075 -3.95924 0.765434
thorax -9.21513 -1.7633 4.09933
lowerneck -21.3274 -0.909754 -1.21171
upperneck 7.84662 -0.976457 1.72993
head 5.80515 -0.312453 0.649663
rclavicle 5.59579e-014 5.36719e-015
rhumerus -47.999 -6.20231 -84.1939
rradius 55.9445
rwrist -13.9256
rhand -28.1191 -2.88753
rfingers 7.12502
rthumb -1.5009 -32.862
lclavicle 5.59579e-014 5.36719e-015
lhumerus -33.3669 -6.13337 90.0464
lradius 75.7609
lwrist 10.13
lhand -21.2487 3.0327
lfingers 7.12502
lthumb 5.13426 32.9505
rfemur -58.7807 -12.6103 19.1249
rtibia 92.2305
rfoot -17.8891 -8.89191
rtoes -38.8552
lfemur -16.7024 -2.64502 -26.1923
ltibia 49.8354
lfoot -33.8404 -8.23399
ltoes -7.02856
387
root 1.09012 16.3032 -33.8065 -160.737 -1.89496 -185.331
lowerback 17.948 -2.412 -4.18927
upperback 0.485398 -4.17104 0.750295
thorax -9.1911 -1.8687 4.25958
lowerneck -21.3015 -0.902808 -1.20704
upperneck 7.44983 -0.960313 1.84511
head 5.67407 -0.288542 0.688231
rclavicle 3.35449e-014 5.1684e-015
rhumerus -49.1956 -6.68435 -83.4633
rradius 55.4832
rwrist -14.9322
rhand -28.1853 -2.97393
rfingers 7.12502
rthumb -1.56484 -32.9479
lclavicle 3.35449e-014 5.1684e-015
lhumerus -32.4732 -6.0474 90.0095
lradius 78.9363
lwrist 11.5278
lhand -21.7154 3.2049
lfingers 7.12502
lthumb 4.68354 33.1331
rfemur -61.0243 -12.9516 19.596
rtibia 92.6818
rfoot -17.9351 -8.46473
rtoes -39.0469
lfemur -15.9796 -2.77742 -26.1473
ltibia 49.5587
lfoot -33.6794 -9.10484
ltoes -6.67104
388
root 1.10286 16.2607 -33.9884 -160.635 -2.11711 -185.537
lowerback 18.2544 -2.51314 -4.35571
upperback 0.634301 -4.36997 0.730336
thorax -9.16855 -1.96746 4.3959
lowerneck -21.2835 -0.921516 -1.24468
upperneck 7.12116 -0.971524 1.97904
head 5.56712 -0.278582 0.736431
rclavicle 4.97459e-014 -1.77912e-014
rhumerus -50.6489 -7.0462 -82.7142
rradius 55.282
rwrist -15.8017
rhand -28.358 -2.7965
rfingers 7.12502
rthumb -1.73163 -32.7692
lclavicle 4.97459e-014 -1.77912e-014
lhumerus -31.5273 -5.98995 90.0051
lradius 82.2829
lwrist 13.0201
lhand -22.1142 3.32526
lfingers 7.12502
lthumb 4.29845 33.2616
rfemur -63.2522 -13.2687 20.0368
rtibia 92.9176
rfoot -17.957 -8.06163
rtoes -39.2567
lfemur -15.1368 -2.95899 -26.143
ltibia 49.0382
lfoot -33.5566 -9.82273
ltoes -6.38205
389
root 1.11448 16.2197 -34.1808 -160.476 -2.35996 -185.763
lowerback 18.4813 -2.61739 -4.47932
upperback 0.743377 -4.55779 0.709636
thorax -9.14842 -2.06049 4.50112
lowerneck -21.2857 -0.963262 -1.32177
upperneck 6.86925 -1.00638 2.11776
head 5.48871 -0.281836 0.789791
rclavicle -4.96962e-016 -1.32192e-014
rhumerus -52.3811 -7.25468 -81.9739
rradius 55.4293
rwrist -16.4403
rhand -28.6256 -2.35794
rfingers 7.12502
rthumb -1.9901 -32.3284
lclavicle -4.96962e-016 -1.32192e-014
lhumerus -30.5277 -5.98346 90.0377
lradius 85.7779
lwrist 14.5701
lhand -22.4634 3.39329
lfingers 7.12502
lthumb 3.96131 33.3362
rfemur -65.4472 -13.5725 20.4472
rtibia 92.9438
rfoot -17.9439 -7.67617
rtoes -39.4783
lfemur -14.1858 -3.19096 -26.1757
ltibia 48.2764
lfoot -33.4622 -10.3716
ltoes -6.20009
390
root 1.12506 16.1811 -34.384 -160.266 -2.62374 -185.984
lowerback 18.6331 -2.72552 -4.5361
upperback 0.81319 -4.72861 0.697788
thorax -9.13503 -2.14525 4.57056
lowerneck -21.3035 -1.02474 -1.43228
upperneck 6.68124 -1.0612 2.25428
head 5.43386 -0.296776 0.845568
rclavicle 5.68027e-014 -8.74653e-015
rhumerus -54.4004 -7.2921 -81.2705
rradius 55.9994
rwrist -16.7996
rhand -28.9223 -1.72732
rfingers 7.12502
rthumb -2.27664 -31.6949
lclavicle 5.68027e-014 -8.74653e-015
lhumerus -29.4818 -6.04501 90.1081
lradius 89.3956
lwrist 16.1265
lhand -22.7868 3.3982
lfingers 7.12502
lthumb 3.64902 33.3467
rfemur -67.5785 -13.8509 20.8477
rtibia 92.7686
rfoot -17.8872 -7.30419
rtoes -39.7126
lfemur -13.1296 -3.46528 -26.2153
ltibia 47.2807
lfoot -33.3769 -10.755
ltoes -6.15961
391
root 1.13511 16.1455 -34.5978 -160.011 -2.90818 -186.182
lowerback 18.7261 -2.83997 -4.5268
upperback 0.848654 -4.8853 0.706475
thorax -9.13126 -2.22281 4.61883
lowerneck -21.3381 -1.09414 -1.56613
upperneck 6.54298 -1.12022 2.3711
head 5.3977 -0.316605 0.898257
rclavicle 5.97348e-014 1.2921e-015
rhumerus -56.6824 -7.13721 -80.6381
rradius 57.0335
rwrist -16.9124
rhand -29.215 -0.939101
rfingers 7.12502
rthumb -2.55938 -30.9035
lclavicle 5.97348e-014 1.2921e-015
lhumerus -28.3978 -6.17214 90.2005
lradius 93.1104
lwrist 17.6189
lhand -23.0641 3.33024
lfingers 7.12502
lthumb 3.38117 33.2832
rfemur -69.6139 -14.0913 21.2491
rtibia 92.403
rfoot -17.7782 -6.94436
rtoes -39.9776
lfemur -11.9783 -3.77871 -26.2392
ltibia 46.0655
lfoot -33.2602 -11.0049
ltoes -6.23561
392
root 1.14472 16.1137 -34.822 -159.731 -3.21289 -186.351
lowerback 18.7812 -2.96328 -4.45115
upperback 0.85815 -5.03238 0.740329
thorax -9.13913 -2.29566 4.65308
lowerneck -21.3857 -1.1622 -1.71314
upperneck 6.43318 -1.17175 2.45999
head 5.37248 -0.335669 0.944853
rclavicle 1.25731e-014 -6.75868e-015
rhumerus -59.1876 -6.79217 -80.1058
rradius 58.5452
rwrist -16.8789
rhand -29.4316 -0.0503954
rfingers 7.12502
rthumb -2.76851 -30.0122
lclavicle 1.25731e-014 -6.75868e-015
lhumerus -27.294 -6.35883 90.295
lradius 96.8927
lwrist 18.9596
lhand -23.3014 3.14239
lfingers 7.12502
lthumb 3.15205 33.0988
rfemur -71.5075 -14.2957 21.6454
rtibia 91.8656
rfoot -17.6262 -6.57702
rtoes -40.2585
lfemur -10.7267 -4.12921 -26.2372
ltibia 44.6514
lfoot -33.0721 -11.1531
ltoes -6.41636
